<?xml version="1.0" standalone="no"?><!DOCTYPE svg PUBLIC "-//W3C//DTD SVG 1.1//EN" "http://www.w3.org/Graphics/SVG/1.1/DTD/svg11.dtd"><svg t="1548898460591" class="icon" style="" viewBox="0 0 3347 1024" version="1.1" xmlns="http://www.w3.org/2000/svg" p-id="997" xmlns:xlink="http://www.w3.org/1999/xlink" width="653.7109375" height="200"><defs><style type="text/css"></style></defs><path d="M406.974 512a170.667 170.667 0 1 0 341.334 0 170.667 170.667 0 1 0-341.334 0zM853.333 525.128a105.026 105.026 0 1 0 210.052 0 105.026 105.026 0 1 0-210.052 0zM91.897 525.128a105.026 105.026 0 1 0 210.052 0 105.026 105.026 0 1 0-210.052 0zM2793.682 65.641c-246.81 0-446.359 199.549-446.359 446.359s199.549 446.359 446.36 446.359S3240.04 758.81 3240.04 512 3040.492 65.641 2793.682 65.641z m0 787.692c-189.046 0-341.333-152.287-341.333-341.333s152.287-341.333 341.333-341.333S3135.015 322.954 3135.015 512s-152.287 341.333-341.333 341.333z" p-id="998"></path><path d="M2636.144 512a157.538 157.538 0 1 0 315.077 0 157.538 157.538 0 1 0-315.077 0z" p-id="999"></path></svg>