<?xml version="1.0" standalone="no"?>
<!DOCTYPE svg PUBLIC "-//W3C//DTD SVG 1.1//EN" "http://www.w3.org/Graphics/SVG/1.1/DTD/svg11.dtd">
<svg t="1545283983434" class="icon" style="" viewBox="0 0 1024 1024" version="1.1" xmlns="http://www.w3.org/2000/svg" p-id="1523" xmlns:xlink="http://www.w3.org/1999/xlink" width="200" height="200"><defs><style type="text/css"></style></defs><path d="M772 882H252c-60.654 0-110-49.346-110-110V252c0-60.654 49.346-110 110-110h416.589L882 312.479V772c0 60.654-49.346 110-110 110zM252 182c-38.598 0-70 31.402-70 70v520c0 38.598 31.402 70 70 70h520c38.598 0 70-31.402 70-70V331.721L654.573 182H252z" p-id="1524"></path><path d="M570.6 396.607h-260c-27.57 0-50-22.43-50-50v-170h40v170c0 5.514 4.486 10 10 10h260c5.514 0 10-4.486 10-10v-170h40v170c0 27.571-22.43 50-50 50zM757 847.607h-40v-229c0-5.514-4.486-10-10-10H317c-5.514 0-10 4.486-10 10v229h-40v-229c0-27.57 22.43-50 50-50h390c27.57 0 50 22.43 50 50v229z" p-id="1525">
</path>
<path d="M483.091 176.607h61.498v137.497h-61.498z" p-id="1526"></path>
</svg>