<?xml version="1.0" standalone="no"?><!DOCTYPE svg PUBLIC "-//W3C//DTD SVG 1.1//EN" "http://www.w3.org/Graphics/SVG/1.1/DTD/svg11.dtd"><svg t="1555384763044" class="icon" style="" viewBox="0 0 1024 1024" version="1.1" xmlns="http://www.w3.org/2000/svg" p-id="2056" xmlns:xlink="http://www.w3.org/1999/xlink" width="200" height="200"><defs><style type="text/css"></style></defs><path d="M913.926534 306.929438c-34.841529-63.1032-84.71031-116.042923-144.194076-153.084561-6.061043-3.857864-11.45489-6.427386-18.08489-6.427386-16.757662 0-30.391171 14.431687-30.391171 32.1707 0 12.040221 6.257517 22.553669 17.10047 28.801976 104.863303 64.952314 170.005952 185.193863 170.005952 313.797869 0 128.48428-65.080228 248.671593-169.782871 313.62186-8.66638 5.050016-17.927301 15.391549-17.927301 29.275767 0 17.739013 13.658068 32.1707 30.446429 32.1707 7.073092 0 12.658298-3.054569 17.785062-6.192026 59.742662-37.002752 109.819175-89.979314 144.816247-153.200194 36.057217-65.137533 55.116295-139.717112 55.116295-215.678154C968.816678 446.399933 949.836395 371.963617 913.926534 306.929438zM803.242665 522.18906c0-44.717458-11.232832-88.62241-32.481785-126.96774-20.623713-37.2156-50.127677-68.388577-85.322248-90.149183l-0.10847-0.064468c-1.02433-0.564865-10.200316-5.520737-17.015535-5.520737-16.879436 0-30.611182 14.480806-30.611182 32.279171 0 11.665691 5.8001 22.472827 15.155165 28.212552 54.896284 33.086559 89.00001 95.240131 89.00001 162.208359 0 68.366064-35.157731 131.180691-91.75475 163.933653l-0.100284 0.061398c-9.143241 5.863545-14.601556 16.182564-14.601556 27.602661 0 17.830087 13.707187 32.336476 30.531364 32.336476l0.162706 0.001023c0.001023 0 0.001023 0 0.001023 0 7.096628 0 15.121396-4.170996 15.459087-4.348028l0.11461-0.064468C756.659721 697.290053 803.242665 613.174284 803.242665 522.18906zM550.366308 75.543533c-4.938476-2.527566-10.45205-3.864004-15.941064-3.864004-8.256034 0-16.358573 2.992147-22.808472 8.42181l-0.145309 0.121773c-5.265934 4.438079-52.949956 44.529169-104.874559 85.10326-93.812619 73.362868-122.260531 86.464257-127.851876 88.575338L159.5933 253.901711c-0.782829 0-1.485841 0.053212-2.139733 0.110517l-60.977793 0c-16.788361 0-30.445406 14.419408-30.445406 32.144094l0 472.503451c0 17.70729 13.658068 32.113395 30.445406 32.113395l204.416669 0.059352c5.431709 2.260483 32.210609 15.781428 115.359354 87.7526 28.380374 24.549116 61.175291 54.086849 92.342128 83.173304 0.826831 0.771573 1.36509 1.27197 1.592264 1.479701l0 0.001023c6.668886 6.316869 15.270798 9.795087 24.221658 9.795087 5.106298 0 10.298554-1.183965 15.020088-3.428076 13.477966-6.433526 22.533202-20.562315 22.533202-35.150568 0.00307-1.576915 0.291642-157.672042 0.291642-160.783917 0-3.175319-1.301645-656.819317-1.314948-663.416572C570.936809 95.360881 563.055305 82.060971 550.366308 75.543533zM510.864642 768.479419l-0.466628 102.921068c-15.527648-13.923104-30.552853-27.123754-44.726667-39.289841-113.78244-97.821933-142.303007-106.007359-161.762197-106.007359-0.385786 0-0.703011 0.048095-0.935302 0.083911-0.060375 0.00921-0.12075 0.021489-0.13917 0.025583-0.063445-0.005117-0.12382-0.017396-0.184195-0.025583-0.231267-0.035816-0.548492-0.083911-0.934279-0.083911L148.03301 726.103286c-17.677615 0-21.494547-4.28356-21.494547-24.121374L126.538463 339.353918c0-13.921058 1.487887-20.479427 15.084557-20.479427l138.452305 0c18.941398 0 47.839565-8.090259 172.184571-104.774275 18.978237-14.756075 38.977733-30.639834 58.115606-46.155203C510.425643 227.891314 510.864642 766.102279 510.864642 768.479419z" p-id="2057"></path></svg>