<?xml version="1.0" standalone="no"?>
<!DOCTYPE svg PUBLIC "-//W3C//DTD SVG 1.1//EN" "http://www.w3.org/Graphics/SVG/1.1/DTD/svg11.dtd">
<svg t="1548658848944" class="icon" style="" viewBox="0 0 1170 1024" version="1.1" 
xmlns="http://www.w3.org/2000/svg" p-id="1497" 
xmlns:xlink="http://www.w3.org/1999/xlink" width="228.515625" height="200">
<defs><style type="text/css"></style></defs>
<path d="M585.142857 870.290286c-14.848 0-94.866286-80.018286-94.866286-95.414857 0-28.013714 73.142857-43.446857 
94.866286-43.446858s94.866286 15.433143 94.866286 43.446858c0 15.433143-80.018286 95.414857-94.866286 95.414857z 
m154.294857-154.843429C731.428571 715.446857 669.147429 658.285714 585.142857 658.285714c-84.553143 0-145.700571 
57.161143-154.294857 57.161143-13.714286 0-96.585143-82.285714-96.585143-96 0-5.156571 2.304-9.728 5.705143-13.129143 
61.147429-60.562286 160.585143-94.281143 245.138286-94.281143s183.990857 33.718857 245.138285 94.281143a18.578286 
18.578286 0 0 1 5.705143 13.129143c0 13.714286-82.870857 96-96.585143 96z m155.977143-155.428571a25.965714 25.965714 
0 0 1-13.129143-4.571429c-94.281143-73.142857-173.714286-116.553143-297.142857-116.553143-172.580571 0-304.018286 
121.161143-310.272 121.161143-13.129143 0-95.414857-82.285714-95.414857-96 0-4.571429 2.304-9.142857 5.705143-12.580571 
102.290286-102.290286 256.585143-158.866286 400.018286-158.866286s297.728 56.576 400.018285 158.866286a18.358857 
18.358857 0 0 1 5.705143 12.580571c0 13.714286-82.285714 96-95.414857 96z m154.88-154.88a20.662857 20.662857 0 0 
1-12.580571-5.156572C905.728 283.977143 763.428571 219.428571 585.142857 219.428571S264.557714 284.013714 132.571429 
399.981714a20.662857 20.662857 0 0 1-12.580572 5.156572c-13.129143 0-96-82.285714-96-96 0-5.156571 2.304-9.728 
5.705143-13.129143C174.262857 152.576 382.829714 73.142857 585.142857 73.142857s410.843429 79.433143 555.446857 
222.866286a18.578286 18.578286 0 0 1 5.705143 13.129143c0 13.714286-82.870857 96-96 96z" fill="" p-id="1498"></path></svg>